<?xml version="1.0" encoding="utf-8"?><!-- Uploaded to: SVG Repo, www.svgrepo.com, Generator: SVG Repo Mixer Tools -->
<svg fill="#000000" width="800px" height="800px" viewBox="0 0 24 24" id="bottle-2" data-name="Flat Color" xmlns="http://www.w3.org/2000/svg" class="icon flat-color"><path id="primary" d="M14.77,9.35A2.52,2.52,0,0,1,14,7.59V3a1,1,0,0,0-1-1H11a1,1,0,0,0-1,1V7.59a2.52,2.52,0,0,1-.77,1.76A4.41,4.41,0,0,0,8,12.41V20a2,2,0,0,0,2,2h4a2,2,0,0,0,2-2V12.41A4.41,4.41,0,0,0,14.77,9.35Z" style="fill: rgb(0, 0, 0);"></path></svg>