<?xml version="1.0" encoding="UTF-8" standalone="no"?>
<!-- Uploaded to: SVG Repo, www.svgrepo.com, Generator: SVG Repo Mixer Tools -->

<svg
   version="1.1"
   id="Uploaded to svgrepo.com"
   width="800px"
   height="800px"
   viewBox="0 0 32 32"
   xml:space="preserve"
   sodipodi:docname="mute-off.svg"
   inkscape:version="1.3 (0e150ed6c4, 2023-07-21)"
   xmlns:inkscape="http://www.inkscape.org/namespaces/inkscape"
   xmlns:sodipodi="http://sodipodi.sourceforge.net/DTD/sodipodi-0.dtd"
   xmlns="http://www.w3.org/2000/svg"
   xmlns:svg="http://www.w3.org/2000/svg"><defs
   id="defs1" /><sodipodi:namedview
   id="namedview1"
   pagecolor="#ffffff"
   bordercolor="#000000"
   borderopacity="0.25"
   inkscape:showpageshadow="2"
   inkscape:pageopacity="0.0"
   inkscape:pagecheckerboard="0"
   inkscape:deskcolor="#d1d1d1"
   showgrid="false"
   inkscape:zoom="1.47625"
   inkscape:cx="399.6613"
   inkscape:cy="400"
   inkscape:window-width="2560"
   inkscape:window-height="1377"
   inkscape:window-x="-8"
   inkscape:window-y="-8"
   inkscape:window-maximized="1"
   inkscape:current-layer="Uploaded to svgrepo.com" />&#10;<style
   type="text/css"
   id="style1">&#10;	.puchipuchi_een{fill:#111918;}&#10;</style>&#10;<path
   style="fill:none;stroke:#000000;stroke-width:2;stroke-linecap:round;stroke-linejoin:round;stroke-dasharray:none;opacity:1"
   d="M 24.072074,5.0262488 C 35.018729,16.230313 23.042439,26.756986 23.042439,26.756986"
   id="path2-8-5"
   sodipodi:nodetypes="cc" /><path
   style="fill:none;stroke:#000000;stroke-width:2;stroke-linecap:round;stroke-linejoin:round;stroke-dasharray:none"
   d="M 20.881185,7.2345473 C 29.199559,16 20.257985,24.467401 20.257985,24.467401"
   id="path2-8"
   sodipodi:nodetypes="cc" /><path
   class="puchipuchi_een"
   d="m 16,6 v 20 c 0,1.1 -0.772,1.537 -1.715,0.971 L 7.715,23.029 C 6.772,22.463 5.1,22 4,22 H 3 C 1.9,22 1,21.1 1,20 V 12 C 1,10.9 1.9,10 3,10 H 4 C 5.1,10 6.772,9.537 7.715,8.971 l 6.57,-3.942 C 15.228,4.463 16,4.9 16,6 Z"
   id="path1"
   sodipodi:nodetypes="ssccssssssccs" />&#10;<path
   style="fill:none;stroke:#000000;stroke-width:2;stroke-linecap:round;stroke-linejoin:round;stroke-dasharray:none"
   d="M 17.937341,9.4022016 C 23.65453,16 17.856055,22.02879 17.856055,22.02879"
   id="path2"
   sodipodi:nodetypes="cc" /></svg>
